<svg id="Layer_1" data-name="Layer 1" xmlns="http://www.w3.org/2000/svg" viewBox="0 0 1600 1666"><defs><style>.cls-1{fill:#5881bb;}.cls-2{fill:#f9d616;}.cls-3{fill:#ef2b2d;}.cls-4{fill:#fff;}</style></defs><path class="cls-1" d="M1492.63,855.38a691.83,691.83,0,0,1-30.92,205.18c-1.54,4.94-3.11,9.84-4.75,14.73q-3.81,11.36-8,22.55-10.38,27.83-23,54.48-12.56,26.43-27.28,51.61-6.78,11.61-14,22.94-14.65,23.07-31.09,44.85-11.73,15.6-24.3,30.48-7,8.33-14.34,16.42a696.34,696.34,0,0,1-114.68,102.09A690.22,690.22,0,0,1,800,1548c-204.42,0-388.14-88.56-514.94-229.38q-7.31-8.08-14.33-16.42a693.06,693.06,0,0,1-96.64-149.88q-12.68-26.62-23.08-54.48-6.88-18.39-12.72-37.28-9-28.86-15.4-58.78a699.4,699.4,0,0,1-4.23-271.58A688.55,688.55,0,0,1,191.3,524.61a695.7,695.7,0,0,1,43.37-69.48q9.12-12.88,18.84-25.34A691.72,691.72,0,0,1,800,162.75c222.08,0,419.72,104.51,546.49,267A691,691,0,0,1,1448,610.4q4.71,12.4,8.93,25.06A691.31,691.31,0,0,1,1492.63,855.38Z"/><path class="cls-2" d="M1461.71,1060.56c-1.54,4.94-3.11,9.84-4.75,14.73q-3.81,11.36-8,22.55-10.38,27.83-23,54.48H174.09q-12.68-26.62-23.08-54.48-6.88-18.39-12.72-37.28Z"/><path class="cls-2" d="M1384.66,1226.87q-14.65,23.07-31.09,44.85-11.73,15.6-24.3,30.48-7,8.33-14.34,16.42H285.06q-7.31-8.08-14.33-16.42a692.71,692.71,0,0,1-55.41-75.33Z"/><polygon class="cls-3" points="462.63 575.37 280.34 512.04 461.33 447.84 506.85 263.34 555.72 446.98 737.84 507.88 556.74 574.51 511.06 726.21 462.63 575.37"/><path class="cls-4" d="M725.88,498.58l-166-55.51-42.7-160.4-.45-1.7-10.07-37.84-9.37,38-3.37,13.63L457.1,444l-165,58.53-26.94,9.56,27,9.37,166.42,57.82,42.74,133.09,9.86,30.72,9.31-30.89,40.29-133.85,165.35-60.84L753,507.65ZM466.65,571.45,295.49,512l170.06-60.34,40.28-163.25,1.2-4.86,1,3.74,43.54,163.59L722.7,508.1,552.65,570.68,510.91,709.31Z"/><path d="M1457,635.46q-4.23-12.65-8.93-25.06a691,691,0,0,0-101.54-180.61c-126.77-162.53-324.41-267-546.49-267a692.55,692.55,0,0,0-546.49,267q-9.7,12.43-18.84,25.34A689.2,689.2,0,0,0,152,610.4a686.36,686.36,0,0,0-33.29,119.8,699.4,699.4,0,0,0,4.23,271.58q6.44,29.9,15.4,58.78,5.82,18.89,12.72,37.28,10.38,27.83,23.08,54.48a693.06,693.06,0,0,0,96.64,149.88q7,8.33,14.33,16.42C411.86,1459.44,595.58,1548,800,1548a690.22,690.22,0,0,0,400.25-127.29,696.34,696.34,0,0,0,114.68-102.09q7.32-8.08,14.34-16.42,12.56-14.88,24.3-30.48,16.41-21.75,31.09-44.85,7.21-11.32,14-22.94,14.7-25.17,27.28-51.61,12.64-26.65,23-54.48,4.2-11.19,8-22.55c1.64-4.89,3.21-9.79,4.75-14.73a696,696,0,0,0-4.75-425.1Zm-66,462.38q-1.23,3-2.52,6.08-10.47,24.76-22.91,48.4-3.18,6-6.48,12a637.37,637.37,0,0,1-39.48,62.54c-1.51,2.09-3,4.2-4.56,6.28a647.8,647.8,0,0,1-58.77,69c-1.54,1.58-3.11,3.16-4.67,4.72q-5.94,6-12,11.7a635.22,635.22,0,0,1-148.76,105.47q-20.68,10.61-42.25,19.7a637.92,637.92,0,0,1-653.61-94.71q-17.71-14.53-34.46-30.46c-4-3.83-8.06-7.74-12-11.7-1.57-1.56-3.13-3.14-4.68-4.72a637.47,637.47,0,0,1-63.28-75.33q-7.73-10.74-14.95-21.8-16.77-25.59-31.05-52.75-12.42-23.64-22.91-48.4c-.86-2-1.71-4.05-2.53-6.08q-7.56-18.48-14-37.28-9.87-29-16.85-58.78a645.89,645.89,0,0,1-4.6-271.58A632,632,0,0,1,210.1,610.4c.47-1.19,1-2.38,1.48-3.57q9.09-21.54,19.69-42.25,4.48-8.73,9.21-17.31,15.17-27.54,33-53.38a635.48,635.48,0,0,1,50.45-64.1q11.87-13.26,24.56-26,15.78-15.78,32.48-30.34,20-17.46,41.32-33.08A627.09,627.09,0,0,1,491,296.35l2.88-1.58c2-1.1,4-2.18,6-3.22s3.95-2.11,5.94-3.14c.73-.37,1.46-.76,2.19-1.12,1.52-.8,3-1.58,4.58-2.34s3-1.55,4.58-2.28Q534,274.32,551.46,267a638.05,638.05,0,0,1,700.09,136.87q12.66,12.66,24.56,26a635.5,635.5,0,0,1,112.31,177c.5,1.19,1,2.38,1.48,3.57a632.73,632.73,0,0,1,36.45,119.8,645.89,645.89,0,0,1-4.6,271.58q-7,29.75-16.84,58.78Q1398.54,1079.38,1390.94,1097.84Z"/><path class="cls-2" d="M138.29,1060.56q5.82,18.89,12.72,37.28,10.38,27.83,23.08,54.48Z"/></svg>